# xmcd
#
# Track frame offsets:
#	150
#	11557
#	22942
#	32011
#	41904
#	53181
#	62842
#	72469
#	86112
#	94057
#	104398
#	116377
#	125723
#	134634
#	144602
#	154754
#	163862
#	174173
#	184730
#	195270
#	206659
#	215809
#	225346
#	236159
#	247850
#
# Disc length: 3466 seconds
#
# Revision: 0
# Processed by: cddbd v1.5.2PL0 Copyright (c) Steve Scherf et al.
# Submitted via: audiograbber 1.83.01
#
DISCID=650d8819
DTITLE=Various Artist - Rockabilly Cowboys - Disc 4
DYEAR=2012
DGENRE=Country
TTITLE0=Johnny Horton - Cherokee Boogie
TTITLE1=Ralph Pruitt - Hey Mister Qorter
TTITLE2=Art Buchanan - Time Will Tell
TTITLE3=Marty Robbins - Long Tall Sally
TTITLE4=Big Jeff and The Radio Playboys - Juke Box Boogie
TTITLE5=Bill Browning and The Echo Valley Boys - Hula Rock
TTITLE6=Bunny Paul - History
TTITLE7=Hawkshaw Hawkins - Pan American
TTITLE8=Billy Martin - If It´s Lovin´ That You Want
TTITLE9=Penny West and The Lucky Penny Trio - Needle In A Haystack
TTITLE10=Johnny McAdams - Is Ttere No Love For Me, Love
TTITLE11=Jimmy Boyd - Crazy Mixed-Up Blues
TTITLE12=Ray Hudson and The Western Rhythmaires - The Blues Walked Away
TTITLE13=Hank Spurling - Box Car Blues
TTITLE14=Rocking Martin - All Because Of You
TTITLE15=Don Winters - Pretty Moon
TTITLE16=Johnny Horton - Honky Tonk Mind
TTITLE17=Sonny Cole - I Dreamed I Was Elvis
TTITLE18=Corky Jones (Buck Owens) - Hot Dog
TTITLE19=Emery Blades - I Feel Like A Million
TTITLE20=Sid Silver - Bumble Rumble
TTITLE21=Lee Slaughters and The Cumberland Playboys - Rock And Roll World
TTITLE22=Randy Spangler and The Country Cats - Rock´n Roll Baby
TTITLE23=Marty Robbins - Maybelline
TTITLE24=Bill Floyd - Hey Boy
EXTD=
EXTT0=
EXTT1=
EXTT2=
EXTT3=
EXTT4=
EXTT5=
EXTT6=
EXTT7=
EXTT8=
EXTT9=
EXTT10=
EXTT11=
EXTT12=
EXTT13=
EXTT14=
EXTT15=
EXTT16=
EXTT17=
EXTT18=
EXTT19=
EXTT20=
EXTT21=
EXTT22=
EXTT23=
EXTT24=
PLAYORDER=
